<svg xmlns="http://www.w3.org/2000/svg" viewBox="0 0 100 100">
  <defs>
    <linearGradient id="sv-grad" x1="0" y1="0" x2="1" y2="1">
      <stop offset="0" stop-color="#059669"/>
      <stop offset="0.5" stop-color="#0d9488"/>
      <stop offset="1" stop-color="#06b6d4"/>
    </linearGradient>
  </defs>
  <rect x="2" y="2" width="96" height="96" rx="24" fill="url(#sv-grad)"/>
  <g transform="translate(18.8 17.5) scale(2.6)" fill="#fff">
    <path d="M22,16V14L13.5,9.07V4.5A1.5,1.5 0 0,0 12,3A1.5,1.5 0 0,0 10.5,4.5V9.07L2,14V16L10.5,13.5V19L8,20.5V22L12,21L16,22V20.5L13.5,19V13.5L22,16Z"/>
  </g>
  <g fill="#fff">
    <rect x="24" y="78" width="9" height="16" rx="2.5" opacity="0.75"/>
    <rect x="38" y="70" width="9" height="24" rx="2.5" opacity="0.85"/>
    <rect x="52" y="75" width="9" height="19" rx="2.5" opacity="0.9"/>
    <rect x="66" y="62" width="9" height="32" rx="2.5"/>
  </g>
</svg>
